PathFileType	4	(X/Y/Z)	c:\Git\powerlifing_model_clean\simulations\HC835B\Session1\HC835B_OGW_0001\marker_experimental.trc
DataRate	CameraRate	NumFrames	NumMarkers	Units	OrigDataRate	OrigDataStartFrame	OrigNumFrames
240.000000	240.000000	4	38	mm	240.000000	54	433
Frame#	Time	RPSI			LPSI			RASI			LASI			RTH1			RTH2			RTH3			RTH4			RSK1			RSK2			RSK3			RSK4			RCAL1			RCAL2			RCAL3			RST			RPT			RTN			RFMB			RSMB			RVMB			RFMH			RSMH			RVMH			RPM			LTH1			LTH2			LTH3			LTH4			LSK1			LSK2			LSK3			LSK4			LCAL1			LCAL2			LCAL3			LFMH			LVMH			
		X1	Y1	Z1	X2	Y2	Z2	X3	Y3	Z3	X4	Y4	Z4	X5	Y5	Z5	X6	Y6	Z6	X7	Y7	Z7	X8	Y8	Z8	X9	Y9	Z9	X10	Y10	Z10	X11	Y11	Z11	X12	Y12	Z12	X13	Y13	Z13	X14	Y14	Z14	X15	Y15	Z15	X16	Y16	Z16	X17	Y17	Z17	X18	Y18	Z18	X19	Y19	Z19	X20	Y20	Z20	X21	Y21	Z21	X22	Y22	Z22	X23	Y23	Z23	X24	Y24	Z24	X25	Y25	Z25	X26	Y26	Z26	X27	Y27	Z27	X28	Y28	Z28	X29	Y29	Z29	X30	Y30	Z30	X31	Y31	Z31	X32	Y32	Z32	X33	Y33	Z33	X34	Y34	Z34	X35	Y35	Z35	X36	Y36	Z36	X37	Y37	Z37	X38	Y38	Z38	

55	0.225	463.1218261718751	1097.16943359375	-2103.18798828125	573.2477416992189	1089.885986328125	-2109.02294921875	416.0531005859376	1066.59814453125	-1887.175659179688	652.3083496093751	1043.624877929688	-1905.591430664063	349.6029968261719	792.3938598632815	-1887.62060546875	365.4415283203126	799.6197509765627	-1829.933227539063	370.0111694335938	722.8386230468751	-1844.17431640625	395.1700134277345	729.1127929687501	-1791.669311523438	439.0312500000001	277.1910400390626	-1859.72607421875	440.6555175781251	266.1293029785157	-1798.628051757813	447.8653869628907	222.0812377929688	-1841.197509765625	462.1642150878907	213.4432373046876	-1783.318603515625	519.3759155273439	80.99086761474611	-1892.890258789063	550.0466308593751	43.11066436767579	-1881.810668945313	486.7832336425782	44.07023239135743	-1889.728759765625	560.2866210937501	59.81486129760744	-1813.587280273438	459.597381591797	57.73012542724611	-1832.066528320313	542.3620605468751	82.7699661254883	-1760.666748046875	536.9026489257814	68.76977539062501	-1726.720458984375	489.2785644531251	92.99120330810548	-1721.82421875	445.1125488281251	35.83741760253907	-1788.9248046875	535.0889282226564	43.40336990356446	-1672.177734375	480.5257873535157	60.82345199584962	-1661.941284179688	425.6243286132814	34.39593887329102	-1710.019165039063	488.510711669922	52.94130706787111	-1604.253051757813	729.4420776367189	768.1709594726565	-2008.7177734375	738.1879272460939	758.8070068359376	-1949.059692382813	736.2819213867189	686.1096191406251	-1985.5322265625	731.4744262695314	675.7955932617189	-1925.49755859375	699.8954467773439	396.9081420898439	-2251.235107421875	709.2723388671876	346.2517395019532	-2237.31494140625	696.1744384765626	351.8107910156251	-2284.97705078125	688.9056396484376	299.1942749023438	-2265.434814453125	623.5511474609376	324.1399841308594	-2407.93994140625	640.5412597656251	309.9605712890626	-2450.18994140625	584.9274902343751	308.9511108398438	-2431.5302734375	597.9705200195314	103.2556991577149	-2354.929931640625	684.1508789062501	123.0235290527344	-2422.46826171875	
56	0.2291666666666667	462.6921997070314	1098.974609375	-2096.60888671875	572.8567504882814	1091.743041992188	-2102.377685546875	415.8353576660157	1068.375854492188	-1880.603637695313	652.1246948242189	1045.505249023438	-1898.8955078125	349.2301635742188	793.722595214844	-1882.5166015625	365.4102172851563	800.0272216796877	-1825.139892578125	369.9234619140626	723.4107055664064	-1840.045532226563	395.303192138672	729.2452392578126	-1787.640869140625	439.3337402343751	277.5557861328126	-1859.200439453125	440.5217895507814	266.2024841308594	-1798.195068359375	448.0743103027345	222.3061523437501	-1840.989501953125	461.9031066894532	213.3542022705079	-1783.004150390625	519.3425292968751	81.07643127441408	-1892.963989257813	550.0582275390626	43.17333221435548	-1881.8720703125	486.7317504882814	44.09753036499024	-1889.767700195313	560.3071289062501	59.91852951049806	-1813.641723632813	459.6201171875001	57.79085159301759	-1832.1298828125	542.3855590820314	82.80816650390626	-1760.687744140625	536.9421997070314	68.79214477539064	-1726.758422851563	489.3224487304689	92.98458099365236	-1721.864501953125	445.1133422851564	35.87883758544923	-1788.962036132813	535.1575927734376	43.40268325805665	-1672.194702148438	480.5751342773439	60.73955535888673	-1661.942504882813	425.6320190429689	34.46125793457032	-1709.980224609375	488.5897521972657	52.857967376709	-1604.257080078125	729.2255249023439	769.5174560546877	-1998.846435546875	738.3616943359376	760.8969116210939	-1939.099731445313	736.2640991210939	687.7598266601564	-1974.684448242188	731.8966064453126	678.2053222656251	-1914.461181640625	700.2555541992189	399.7868041992189	-2237.760986328125	709.4715576171876	349.0715637207032	-2223.874267578125	696.3035888671876	354.7664184570313	-2271.533203125	688.9129638671876	302.0485534667969	-2252.009033203125	623.0745849609376	326.8689270019532	-2395.281005859375	640.2907714843751	312.4299316406251	-2437.3349609375	584.6007690429689	311.1502685546876	-2418.850830078125	598.9074707031251	106.1846389770508	-2340.371826171875	685.2121582031251	126.0875320434571	-2407.74267578125	
57	0.2333333333333333	462.2391967773439	1100.7919921875	-2090.0224609375	572.3910522460939	1093.646118164063	-2095.75439453125	415.5834350585939	1069.928588867188	-1874.212524414063	652.0398559570314	1047.30908203125	-1892.199096679688	349.1196289062501	794.4691162109377	-1878.048828125	365.4384765625001	800.496765136719	-1820.479736328125	369.6694641113282	724.2225341796876	-1835.786376953125	395.4145812988282	729.4639282226564	-1783.601806640625	439.6076965332032	278.0382690429688	-1858.70703125	440.2942199707032	266.4011840820313	-1797.718872070313	448.4935607910157	222.4903259277344	-1840.851440429688	461.6455688476564	213.3236389160157	-1782.72119140625	519.2771606445314	81.11349487304689	-1893.051147460938	550.0390014648439	43.23136138916016	-1881.945434570313	486.7150878906251	44.14198303222657	-1889.8271484375	560.2700195312501	60.0098342895508	-1813.703125	459.6099853515626	57.84822463989259	-1832.171630859375	542.3815307617189	82.85836791992189	-1760.728271484375	536.9791870117189	68.79678344726564	-1726.820434570313	489.322967529297	92.98557281494142	-1721.886352539063	445.1133422851564	35.93187713623048	-1788.99755859375	535.2350463867189	43.34474563598634	-1672.2412109375	480.6619262695314	60.6952362060547	-1661.9765625	425.6739196777345	34.43613433837891	-1710.014404296875	488.6473083496095	52.82450103759767	-1604.289916992188	728.9899902343751	770.9337158203127	-1988.974609375	738.5824584960939	763.0958251953126	-1929.167236328125	736.2888183593751	689.5110473632814	-1963.7734375	732.2653198242189	680.6950683593751	-1903.42626953125	700.4016723632814	402.530731201172	-2224.21337890625	709.5394287109376	351.8085021972657	-2210.292236328125	696.3831176757814	357.4567871093751	-2257.97705078125	688.8852539062501	304.7960205078126	-2238.418212890625	622.6931762695314	329.2171630859376	-2382.614501953125	640.2974853515626	314.4423828125001	-2424.417236328125	584.4836425781251	312.9678344726563	-2406.257080078125	599.6494140625001	108.9667282104492	-2325.3603515625	686.2522583007814	128.6612243652344	-2392.43310546875	
58	0.2375	461.7500915527345	1102.659423828125	-2083.40625	571.9338378906251	1095.626098632813	-2089.132080078125	415.3347167968751	1071.68212890625	-1867.651123046875	651.9863891601564	1049.277099609375	-1885.526123046875	348.8448486328126	795.600036621094	-1873.2900390625	365.3898620605469	801.0292968750002	-1815.814331054688	369.6240234375001	724.5903320312501	-1832.076782226563	395.5295410156251	729.7647094726564	-1779.632202148438	439.6506347656251	278.3816223144532	-1858.232543945313	440.1645812988282	266.4361572265626	-1797.290649414063	448.5313720703126	222.7552337646485	-1840.528930664063	461.4747924804689	213.2954406738282	-1782.444091796875	519.1961669921876	81.20824432373048	-1893.199096679688	549.9868164062501	43.30432510375977	-1882.015625	486.6929626464845	44.18291091918946	-1889.86865234375	560.2010498046876	60.1970558166504	-1813.806396484375	459.5842590332032	57.95628738403322	-1832.248168945313	542.3491210937501	82.95439910888673	-1760.775146484375	536.9832153320314	68.83943939208986	-1726.865478515625	489.3037719726564	93.02540588378908	-1721.920043945313	445.1076049804689	35.95829010009766	-1789.033813476563	535.2587890625001	43.35498046875001	-1672.249755859375	480.7083435058595	60.64580154418947	-1662.026611328125	425.6830444335939	34.48369979858399	-1710.040771484375	488.6997375488282	52.76763916015626	-1604.300659179688	728.7905273437501	772.4717407226565	-1979.035888671875	738.6902465820314	765.3331909179689	-1919.201416015625	736.3465576171876	691.3395385742189	-1952.87158203125	732.7302856445314	683.4476318359376	-1892.34716796875	700.3984375000001	405.0899963378907	-2210.58154296875	709.5215454101564	354.3231506347657	-2196.611328125	696.4011840820314	359.9665222167969	-2244.31103515625	688.8272094726564	307.3519897460938	-2224.683349609375	622.3778686523439	331.2025451660157	-2369.838623046875	640.4958496093751	316.0045776367188	-2411.3154296875	584.5264892578126	314.4688720703126	-2393.6357421875	600.2807006835939	111.5232772827149	-2310.069580078125	687.3603515625001	131.0250091552735	-2376.529296875	
